<svg width="91" height="91" viewBox="0 0 91 91" fill="none" xmlns="http://www.w3.org/2000/svg">
<g id="mdi:instagram">
<path id="Vector" d="M29.5752 7.58333H61.4252C73.5585 7.58333 83.4168 17.4417 83.4168 29.575V61.425C83.4168 67.2576 81.0999 72.8512 76.9756 76.9755C72.8514 81.0997 67.2577 83.4167 61.4252 83.4167H29.5752C17.4418 83.4167 7.5835 73.5583 7.5835 61.425V29.575C7.5835 23.7424 9.90047 18.1488 14.0247 14.0245C18.1489 9.9003 23.7426 7.58333 29.5752 7.58333ZM28.8168 15.1667C25.1966 15.1667 21.7247 16.6048 19.1648 19.1647C16.605 21.7245 15.1668 25.1965 15.1668 28.8167V62.1833C15.1668 69.7287 21.2714 75.8333 28.8168 75.8333H62.1835C65.8037 75.8333 69.2756 74.3952 71.8355 71.8353C74.3954 69.2755 75.8335 65.8035 75.8335 62.1833V28.8167C75.8335 21.2712 69.7289 15.1667 62.1835 15.1667H28.8168ZM65.4064 20.8542C66.6634 20.8542 67.869 21.3535 68.7578 22.2424C69.6467 23.1312 70.146 24.3367 70.146 25.5937C70.146 26.8508 69.6467 28.0563 68.7578 28.9451C67.869 29.834 66.6634 30.3333 65.4064 30.3333C64.1494 30.3333 62.9439 29.834 62.055 28.9451C61.1662 28.0563 60.6668 26.8508 60.6668 25.5937C60.6668 24.3367 61.1662 23.1312 62.055 22.2424C62.9439 21.3535 64.1494 20.8542 65.4064 20.8542ZM45.5002 26.5417C50.5282 26.5417 55.3504 28.5391 58.9057 32.0944C62.4611 35.6498 64.4585 40.4719 64.4585 45.5C64.4585 50.5281 62.4611 55.3502 58.9057 58.9056C55.3504 62.4609 50.5282 64.4583 45.5002 64.4583C40.4721 64.4583 35.65 62.4609 32.0946 58.9056C28.5392 55.3502 26.5418 50.5281 26.5418 45.5C26.5418 40.4719 28.5392 35.6498 32.0946 32.0944C35.65 28.5391 40.4721 26.5417 45.5002 26.5417ZM45.5002 34.125C42.4833 34.125 39.59 35.3234 37.4568 37.4567C35.3236 39.5899 34.1252 42.4832 34.1252 45.5C34.1252 48.5168 35.3236 51.4101 37.4568 53.5433C39.59 55.6766 42.4833 56.875 45.5002 56.875C48.517 56.875 51.4103 55.6766 53.5435 53.5433C55.6767 51.4101 56.8752 48.5168 56.8752 45.5C56.8752 42.4832 55.6767 39.5899 53.5435 37.4567C51.4103 35.3234 48.517 34.125 45.5002 34.125Z" fill="#FFEDA0"/>
</g>
</svg>
